{
	"asset": {
		"generator": "Blocks 4.0.1RC0 SVR",
		"version": "1.1",
		"copyright": "Unknown"
	},
	"buffers": {
		"model": {
			"byteLength": 905248,
			"type": "arraybuffer",
			"uri": "model.bin"
		}
	},
	"accessors": {
		"accessor_position_m0-PolyPaper23_-105548": {
			"bufferView": "vec3BufferView",
			"byteOffset": 0,
			"byteStride": 12,
			"componentType": 5126,
			"count": 19243,
			"max": [ -0.4555439, 1.645241, 1.028137 ],
			"min": [ -2.909328, 1.064124, -1.435157 ],
			"type": "VEC3"
		 },
		"accessor_normal_m0-PolyPaper23_-105548": {
			"bufferView": "vec3BufferView",
			"byteOffset": 230916,
			"byteStride": 12,
			"componentType": 5126,
			"count": 19243,
			"max": [ 0.9999202, 0.9998763, 0.999725 ],
			"min": [ -0.9996589, -0.9999362, -0.9983612 ],
			"type": "VEC3"
		 },
		"accessor_color_m0-PolyPaper23_-105548": {
			"bufferView": "vec4BufferView",
			"byteOffset": 0,
			"byteStride": 16,
			"componentType": 5126,
			"count": 19243,
			"max": [ 1, 0.8, 0.5333334, 1 ],
			"min": [ 0.1019608, 0.1019608, 0.1019608, 1 ],
			"type": "VEC4"
		 },
		"accessor_indices_0_m0-PolyPaper23_-105548": {
			"bufferView": "ushortBufferView",
			"byteOffset": 0,
			"byteStride": 0,
			"componentType": 5123,
			"count": 22497,
			"max": [ 19242 ],
			"min": [ 0 ],
			"type": "SCALAR"
		 },
		"accessor_position_m1-PolyPaper20_-105554": {
			"bufferView": "vec3BufferView",
			"byteOffset": 461832,
			"byteStride": 12,
			"componentType": 5126,
			"count": 2145,
			"max": [ -0.1311111, 1.568756, -0.1648432 ],
			"min": [ -2.60623, 0.9935322, -0.9974749 ],
			"type": "VEC3"
		 },
		"accessor_normal_m1-PolyPaper20_-105554": {
			"bufferView": "vec3BufferView",
			"byteOffset": 487572,
			"byteStride": 12,
			"componentType": 5126,
			"count": 2145,
			"max": [ 0.9992016, 0.9994779, 0.9965923 ],
			"min": [ -0.986806, -0.9991449, -0.9981195 ],
			"type": "VEC3"
		 },
		"accessor_color_m1-PolyPaper20_-105554": {
			"bufferView": "vec4BufferView",
			"byteOffset": 307888,
			"byteStride": 16,
			"componentType": 5126,
			"count": 2145,
			"max": [ 1, 0.8, 0.5333334, 1 ],
			"min": [ 0.1019608, 0.1019608, 0.1019608, 1 ],
			"type": "VEC4"
		 },
		"accessor_indices_0_m1-PolyPaper20_-105554": {
			"bufferView": "ushortBufferView",
			"byteOffset": 44994,
			"byteStride": 0,
			"componentType": 5123,
			"count": 2367,
			"max": [ 2144 ],
			"min": [ 0 ],
			"type": "SCALAR"
		 }
	},
	"bufferViews": {
		"ushortBufferView": {
			"buffer": "model",
			"byteLength": 49728,
			"byteOffset": 0,
			"target": 34963
		},
		"vec3BufferView": {
			"buffer": "model",
			"byteLength": 513312,
			"byteOffset": 49728,
			"target": 34962
		},
		"vec4BufferView": {
			"buffer": "model",
			"byteLength": 342208,
			"byteOffset": 563040,
			"target": 34962
		}
	},
	"meshes": {
		"mesh_m0-PolyPaper23_-105548": {
			"name": "mesh_m0-PolyPaper23_-105548",
			"primitives": [
				{
					"attributes": {
						"POSITION": "accessor_position_m0-PolyPaper23_-105548",
						"NORMAL": "accessor_normal_m0-PolyPaper23_-105548",
						"COLOR": "accessor_color_m0-PolyPaper23_-105548"
					},
					"indices": "accessor_indices_0_m0-PolyPaper23_-105548",
					"material": "material_mat23",
					"mode": 4
				}
			]
		},
		"mesh_m1-PolyPaper20_-105554": {
			"name": "mesh_m1-PolyPaper20_-105554",
			"primitives": [
				{
					"attributes": {
						"POSITION": "accessor_position_m1-PolyPaper20_-105554",
						"NORMAL": "accessor_normal_m1-PolyPaper20_-105554",
						"COLOR": "accessor_color_m1-PolyPaper20_-105554"
					},
					"indices": "accessor_indices_0_m1-PolyPaper20_-105554",
					"material": "material_mat20",
					"mode": 4
				}
			]
		}
	},
	"shaders": {
		"vertex_mat23": {
			"type": 35633,
			"uri": "https://vr.google.com/shaders/w/vs.glsl"
		},
		"fragment_mat23": {
			"type": 35632,
			"uri": "https://vr.google.com/shaders/w/fs.glsl"
		},
		"vertex_mat20": {
			"type": 35633,
			"uri": "https://vr.google.com/shaders/w/vs.glsl"
		},
		"fragment_mat20": {
			"type": 35632,
			"uri": "https://vr.google.com/shaders/w/fs.glsl"
		}
	},
	"programs": {
		"program_mat23": {
			"attributes": [
				"a_position",
				"a_normal",
				"a_color"				
			],
			"vertexShader": "vertex_mat23",
			"fragmentShader": "fragment_mat23"
		},
		"program_mat20": {
			"attributes": [
				"a_position",
				"a_normal",
				"a_color"				
			],
			"vertexShader": "vertex_mat20",
			"fragmentShader": "fragment_mat20"
		}
	},
	"techniques": {
		"technique_mat23": {
			"program": "program_mat23",
			"extras": {"gvrss" : "https://vr.google.com/shaders/w/gvrss/paper.json"},
			"parameters": {
				"position": {
					"type": 35665,
					"semantic": "POSITION"
				},
				"normal": {
					"type": 35665,
					"semantic": "NORMAL"
				},
				"color": {
					"type": 35666,
					"semantic": "COLOR"
				},
				"modelViewMatrix": {
					"type": 35676,
					"semantic": "MODELVIEW"
				},
				"projectionMatrix": {
					"type": 35676,
					"semantic": "PROJECTION"
				},
				"normalMatrix": {
					"type": 35675,
					"semantic": "MODELVIEWINVERSETRANSPOSE"
				},
				"color": {
					"type": 35666
				},
				"roughness": {
					"type": 5126
				},
				"metallic": {
					"type": 5126
				},
				"light0Pos": {
					"type": 35666
				},
				"light0Color": {
					"type": 35666
				},
				"light1Pos": {
					"type": 35666
				},
				"light1Color": {
					"type": 35666
				}				
			},
			"attributes": {
				"a_position": "position",
				"a_normal": "normal",
				"a_color": "color"				
			},
			"uniforms": {
				"u_modelViewMatrix": "modelViewMatrix",
				"u_projectionMatrix": "projectionMatrix",
				"u_normalMatrix": "normalMatrix",
				"u_color": "color",
				"u_roughness": "roughness",
				"u_metallic": "metallic",
				"u_light0Pos": "light0Pos",
				"u_light0Color": "light0Color",
				"u_light1Pos": "light1Pos",
				"u_light1Color": "light1Color"				
			},
			"states": {
				"enable": [
					2929,
					2884
				],
				"functions": {
					"cullFace": [1029]
				}
			}
		},
		"technique_mat20": {
			"program": "program_mat20",
			"extras": {"gvrss" : "https://vr.google.com/shaders/w/gvrss/paper.json"},
			"parameters": {
				"position": {
					"type": 35665,
					"semantic": "POSITION"
				},
				"normal": {
					"type": 35665,
					"semantic": "NORMAL"
				},
				"color": {
					"type": 35666,
					"semantic": "COLOR"
				},
				"modelViewMatrix": {
					"type": 35676,
					"semantic": "MODELVIEW"
				},
				"projectionMatrix": {
					"type": 35676,
					"semantic": "PROJECTION"
				},
				"normalMatrix": {
					"type": 35675,
					"semantic": "MODELVIEWINVERSETRANSPOSE"
				},
				"color": {
					"type": 35666
				},
				"roughness": {
					"type": 5126
				},
				"metallic": {
					"type": 5126
				},
				"light0Pos": {
					"type": 35666
				},
				"light0Color": {
					"type": 35666
				},
				"light1Pos": {
					"type": 35666
				},
				"light1Color": {
					"type": 35666
				}				
			},
			"attributes": {
				"a_position": "position",
				"a_normal": "normal",
				"a_color": "color"				
			},
			"uniforms": {
				"u_modelViewMatrix": "modelViewMatrix",
				"u_projectionMatrix": "projectionMatrix",
				"u_normalMatrix": "normalMatrix",
				"u_color": "color",
				"u_roughness": "roughness",
				"u_metallic": "metallic",
				"u_light0Pos": "light0Pos",
				"u_light0Color": "light0Color",
				"u_light1Pos": "light1Pos",
				"u_light1Color": "light1Color"				
			},
			"states": {
				"enable": [
					2929,
					2884
				],
				"functions": {
					"cullFace": [1029]
				}
			}
		}
	},
	"materials": {
		"material_mat23": {
			"technique": "technique_mat23",
			"values": {
				"color": [0.1019608, 0.1019608, 0.1019608, 1],
				"roughness": 1,
				"metallic": 0,
				"light0Pos": [-0.02, 4.11, -0.54, 0],
				"light0Color": [1.28, 1.232075, 1.101177, 0],
				"light1Pos": [0.02, -4.11, 0.54, 0],
				"light1Color": [0.2941177, 0.2953672, 0.32, 0]				
			},
			"name": "material_mat23"
		},
		"material_mat20": {
			"technique": "technique_mat20",
			"values": {
				"color": [0.4745098, 0.3333333, 0.282353, 1],
				"roughness": 1,
				"metallic": 0,
				"light0Pos": [-0.02, 4.11, -0.54, 0],
				"light0Color": [1.28, 1.232075, 1.101177, 0],
				"light1Pos": [0.02, -4.11, 0.54, 0],
				"light1Color": [0.2941177, 0.2953672, 0.32, 0]				
			},
			"name": "material_mat20"
		}
	},
	"nodes": {
		"node_MeshObject1183647744-PolyPaper23": {
			"name": "node_MeshObject1183647744-PolyPaper23",
			"meshes": [
				"mesh_m0-PolyPaper23_-105548"
			],
			"matrix": [1, 0, 0, 0, 0, 1, 0, 0, 0, 0, 1, 0, 0, 0, 0, 1]
		},
		"node_MeshObject1755726848-PolyPaper20": {
			"name": "node_MeshObject1755726848-PolyPaper20",
			"meshes": [
				"mesh_m1-PolyPaper20_-105554"
			],
			"matrix": [1, 0, 0, 0, 0, 1, 0, 0, 0, 0, 1, 0, 0, 0, 0, 1]
		}
	},
	"scene": "defaultScene",
	"scenes": {
		"defaultScene": {
			"nodes": [
				"node_MeshObject1183647744-PolyPaper23",
				"node_MeshObject1755726848-PolyPaper20"
			],
			"extras": {

			}
		}
	}
}